HIERARCHY
ROOT Hips
{
	OFFSET	0.00	0.00	0.00
	CHANNELS 6 Xposition Yposition Zposition Zrotation Xrotation Yrotation
	JOINT LeftUpLeg
	{
		OFFSET	 0.126116	-0.065224	 0.014019
		CHANNELS 3 Zrotation Xrotation Yrotation
		JOINT LeftLeg
		{
			OFFSET	 0.000000	 0.569914	 0.000000
			CHANNELS 3 Zrotation Xrotation Yrotation
			JOINT LeftFoot
			{
				OFFSET	 0.000000	 0.544423	 0.000000
				CHANNELS 3 Zrotation Xrotation Yrotation
				JOINT LeftToeBase
				{
					OFFSET	 0.000000	 0.207117	 0.000000
					CHANNELS 3 Zrotation Xrotation Yrotation
					End Site
					{
						OFFSET	 0.000000	 0.207117	 0.000000
					}
				}
			}
		}
	}
	JOINT RightUpLeg
	{
		OFFSET	-0.124023	-0.065224	 0.008373
		CHANNELS 3 Zrotation Xrotation Yrotation
		JOINT RightLeg
		{
			OFFSET	 0.000000	 0.570047	 0.000000
			CHANNELS 3 Zrotation Xrotation Yrotation
			JOINT RightFoot
			{
				OFFSET	 0.000000	 0.544354	 0.000000
				CHANNELS 3 Zrotation Xrotation Yrotation
				JOINT RightToeBase
				{
					OFFSET	 0.000000	 0.207540	 0.000000
					CHANNELS 3 Zrotation Xrotation Yrotation
					End Site
					{
						OFFSET	 0.000000	 0.207540	 0.000000
					}
				}
			}
		}
	}
	JOINT Spine
	{
		OFFSET	 0.000184	 0.117403	 0.007763
		CHANNELS 3 Zrotation Xrotation Yrotation
		JOINT Spine1
		{
			OFFSET	 0.000000	 0.137269	 0.000000
			CHANNELS 3 Zrotation Xrotation Yrotation
			JOINT Spine2
			{
				OFFSET	 0.000000	 0.156879	 0.000000
				CHANNELS 3 Zrotation Xrotation Yrotation
				JOINT LeftShoulder
				{
					OFFSET	 0.080501	 0.160143	 0.002496
					CHANNELS 3 Zrotation Xrotation Yrotation
					JOINT LeftArm
					{
						OFFSET	 0.000000	 0.164363	 0.000000
						CHANNELS 3 Zrotation Xrotation Yrotation
						JOINT LeftForeArm
						{
							OFFSET	 0.000000	 0.364576	 0.000000
							CHANNELS 3 Zrotation Xrotation Yrotation
							JOINT LeftHand
							{
								OFFSET	 0.000000	 0.360812	 0.000000
								CHANNELS 3 Zrotation Xrotation Yrotation
								JOINT LeftHandIndex1
								{
									OFFSET	 0.000000	 0.086006	 0.000000
									CHANNELS 3 Zrotation Xrotation Yrotation
									JOINT LeftHandIndex2
									{
										OFFSET	 0.000000	 0.047237	 0.000000
										CHANNELS 3 Zrotation Xrotation Yrotation
										JOINT LeftHandIndex3
										{
											OFFSET	-0.004284	 0.038165	 0.000551
											CHANNELS 3 Zrotation Xrotation Yrotation
											End Site
											{
												OFFSET	-0.004284	 0.038165	 0.000551
											}
										}
									}
								}
							}
						}
					}
				}
				JOINT Neck
				{
					OFFSET	 0.000000	 0.176489	 0.000000
					CHANNELS 3 Zrotation Xrotation Yrotation
					JOINT Head
					{
						OFFSET	 0.000000	 0.077941	 0.001747
						CHANNELS 3 Zrotation Xrotation Yrotation
						End Site
						{
							OFFSET	 0.000000	 0.077941	 0.001747
						}
					}
				}
				JOINT RightShoulder
				{
					OFFSET	-0.080363	 0.159706	-0.000306
					CHANNELS 3 Zrotation Xrotation Yrotation
					JOINT RightArm
					{
						OFFSET	 0.000000	 0.164196	 0.000000
						CHANNELS 3 Zrotation Xrotation Yrotation
						JOINT RightForeArm
						{
							OFFSET	 0.000000	 0.365611	 0.000000
							CHANNELS 3 Zrotation Xrotation Yrotation
							JOINT RightHand
							{
								OFFSET	 0.000000	 0.360648	 0.000000
								CHANNELS 3 Zrotation Xrotation Yrotation
								JOINT RightHandIndex1
								{
									OFFSET	 0.000000	 0.069977	 0.000000
									CHANNELS 3 Zrotation Xrotation Yrotation
									JOINT RightHandIndex2
									{
										OFFSET	 0.000000	 0.052305	 0.000000
										CHANNELS 3 Zrotation Xrotation Yrotation
										JOINT RightHandIndex3
										{
											OFFSET	 0.009002	 0.042196	 0.000782
											CHANNELS 3 Zrotation Xrotation Yrotation
											End Site
											{
												OFFSET	 0.009002	 0.042196	 0.000782
											}
										}
									}
								}
							}
						}
					}
				}
			}
		}
	}
}
MOTION
Frames:    9
Frame Time: 0.03333334
-0.001602	 1.269924	 0.014173	 0.007331	 3.093735	 178.807500	-176.675500	 4.081176	-21.981640	 3.335238	-16.419470	 2.945584	-5.844235	 69.411060	 6.907728	 1.331492	 28.938720	-2.729976	 176.365200	 5.255388	 25.565880	-4.984434	-15.994440	-6.425119	 2.622987	 68.841420	-1.791121	-1.305360	 28.580650	 2.604743	-1.180535	 4.117117	 9.063062	-1.330755	 0.844542	 3.780497	-1.133012	 2.259967	-15.573060	-113.447100	 5.126569	 93.000170	 15.998660	 51.943260	 30.274470	 5.066607	-0.261666	-0.071192	 9.366729	 0.014103	 15.862220	-6.580301	 5.266122	 0.000000	 0.000000	 0.000000	 0.000000	 0.000000	 0.000000	 0.000000	 3.830019	-0.644310	-0.250155	 3.214158	 0.755729	-2.280404	 114.205700	-4.428549	-88.482380	-41.433010	 11.139230	 47.082170	-86.038840	-2.247617	-2.040013	-25.916500	-14.351160	-48.806040	-0.359781	 10.582440	 0.744568	 11.977790	 9.317309	-2.096065	-8.359142	 3.150336	 0.104224
-0.002905	 1.270743	 0.058443	 0.153942	 2.844954	 178.764700	-176.308900	 5.884237	-22.051090	 3.784472	-18.486020	 3.064961	-5.954410	 69.948180	 7.026350	 1.331492	 28.938720	-2.729976	 176.602400	 7.085467	 25.633150	-4.513249	-14.552910	-6.326088	 1.395412	 65.915490	-1.440352	-1.305370	 28.580710	 2.602110	-1.045985	 4.161062	 9.232944	-1.327161	-0.244355	 3.759599	-1.055742	 3.590287	-15.363110	-113.447200	 5.120991	 92.998950	 16.485170	 51.823660	 29.889730	 4.983095	-0.256841	-0.063188	 8.305234	 0.580746	 15.464620	-6.580301	 5.266122	 0.000000	 0.000000	 0.000000	 0.000000	 0.000000	 0.000000	 0.000000	 3.839106	-0.665159	-0.252985	 3.248852	 0.936947	-2.271982	 114.204100	-4.417465	-88.490400	-40.114950	 10.933130	 45.716380	-84.886020	-2.243582	-2.003214	-27.417440	-13.523390	-47.787530	-0.359779	 10.582380	 0.744568	 11.977790	 9.317255	-2.096054	-8.359142	 3.150308	 0.104227
-0.004048	 1.271478	 0.098734	 0.286116	 2.642656	 178.698800	-176.135200	 6.624437	-22.139820	 3.811918	-18.610690	 3.046550	-5.727323	 69.540020	 6.930043	 1.331492	 28.938720	-2.729976	 176.942600	 7.967352	 25.639170	-3.616531	-11.755520	-6.166700	 0.216038	 62.491970	-1.195780	-1.305388	 28.580810	 2.597434	-0.963164	 4.211092	 9.576174	-1.351909	-1.243153	 3.711823	-0.985021	 4.781853	-15.011600	-113.447300	 5.111091	 92.996780	 16.795650	 51.654310	 29.671390	 4.922972	-0.252686	-0.048554	 7.312992	 1.087131	 14.726670	-6.580301	 5.266122	 0.000000	 0.000000	 0.000000	 0.000000	 0.000000	 0.000000	 0.000000	 3.855238	-0.702176	-0.258001	 3.310229	 1.123351	-2.241827	 114.201300	-4.397810	-88.504610	-38.767220	 9.337372	 44.165310	-81.588680	-2.227504	-1.889388	-30.768050	-11.703690	-45.970780	-0.359776	 10.582290	 0.744568	 11.977790	 9.317158	-2.096034	-8.359139	 3.150255	 0.104232
-0.005281	 1.272249	 0.142529	 0.432615	 2.448780	 178.595900	-176.118000	 6.457872	-22.249460	 3.431005	-16.864000	 2.886768	-5.157222	 68.140010	 6.631479	 1.331492	 28.938720	-2.729976	 177.622400	 6.961531	 25.555980	-1.490685	-4.905321	-5.931104	-1.256406	 56.798930	-1.123478	-1.305418	 28.580980	 2.589859	-0.913643	 4.272608	 10.152420	-1.406999	-2.324620	 3.629506	-0.913147	 6.047494	-14.436210	-113.447600	 5.095034	 92.993260	 16.977200	 51.396360	 29.584030	 4.874878	-0.248433	-0.024719	 6.223340	 1.644794	 13.493460	-6.580301	 5.266122	 0.000000	 0.000000	 0.000000	 0.000000	 0.000000	 0.000000	 0.000000	 3.881363	-0.762140	-0.266105	 3.409587	 1.350034	-2.180879	 114.196600	-4.365960	-88.527650	-37.760120	 5.599268	 42.412450	-74.152590	-2.164847	-1.627872	-37.828240	-8.614921	-42.971030	-0.359771	 10.582130	 0.744568	 11.977790	 9.316998	-2.096002	-8.359138	 3.150172	 0.104240
-0.005933	 1.272643	 0.166726	 0.568003	 2.357103	 178.475800	-176.091400	 6.019111	-22.368030	 3.095804	-15.299100	 2.742092	-4.850307	 67.068470	 6.501301	 1.331492	 28.938720	-2.729976	 177.767500	 8.292628	 25.497960	-1.485506	-4.888327	-6.018623	-1.723068	 55.654660	-0.999708	-1.305453	 28.581180	 2.580821	-0.910443	 4.391115	 10.841060	-1.442947	-3.281696	 3.524007	-0.875902	 7.147478	-13.723380	-113.447900	 5.075880	 92.989070	 17.056520	 51.038800	 29.590560	 4.872678	-0.246272	 0.004044	 5.233089	 2.241054	 11.949020	-6.580301	 5.266122	 0.000000	 0.000000	 0.000000	 0.000000	 0.000000	 0.000000	 0.000000	 3.912527	-0.833700	-0.275740	 3.528137	 1.575277	-2.096177	 114.191100	-4.327958	-88.555130	-38.529820	-0.504570	 41.027530	-61.803680	-1.981716	-1.207365	-48.613790	-4.894299	-39.240750	-0.359765	 10.581930	 0.744568	 11.977790	 9.316810	-2.095964	-8.359133	 3.150072	 0.104249
-0.005721	 1.272582	 0.165937	 0.738245	 2.375871	 178.306400	-175.837900	 6.002982	-22.538770	 3.142106	-15.516780	 2.682157	-5.141135	 67.208220	 6.723056	 1.331492	 28.938720	-2.729976	 177.965100	 8.237338	 25.397320	-1.485242	-4.887472	-6.143990	-1.839013	 55.749680	-0.767451	-1.305502	 28.581460	 2.568088	-0.951070	 4.617671	 11.779560	-1.410931	-4.347864	 3.353222	-0.898438	 8.332749	-12.662150	-113.448300	 5.048896	 92.983140	 17.051020	 50.473320	 29.685610	 4.931088	-0.246412	 0.044781	 4.127473	 3.078049	 9.631477	-6.580301	 5.266122	 0.000000	 0.000000	 0.000000	 0.000000	 0.000000	 0.000000	 0.000000	 3.956409	-0.934519	-0.289247	 3.695116	 1.852378	-1.958784	 114.183400	-4.274426	-88.593820	-44.490780	-12.369590	 38.163420	-34.749920	-1.278260	-0.461172	-69.953150	-0.520143	-34.144540	-0.359757	 10.581670	 0.744568	 11.977790	 9.316543	-2.095910	-8.359127	 3.149930	 0.104263
-0.005482	 1.272505	 0.165016	 0.901879	 2.401440	 178.128300	-175.589000	 5.963411	-22.718920	 3.186253	-15.723820	 2.618482	-5.450795	 67.347810	 6.960230	 1.331492	 28.938720	-2.729976	 178.157500	 8.167143	 25.292490	-1.485077	-4.886946	-6.278755	-1.963029	 55.855770	-0.518678	-1.305554	 28.581760	 2.554602	-1.023332	 4.792264	 12.693000	-1.360095	-5.298044	 3.117239	-0.963691	 9.317515	-11.463730	-113.448800	 5.020340	 92.976890	 16.802290	 49.961590	 29.965480	 4.991740	-0.246422	 0.087905	 3.205930	 3.818320	 6.995459	-6.580301	 5.266122	 0.000000	 0.000000	 0.000000	 0.000000	 0.000000	 0.000000	 0.000000	 4.002863	-1.041314	-0.303469	 3.871840	 2.114498	-1.792371	 114.175300	-4.217705	-88.634810	-53.550870	-23.171850	 31.475070	-5.095932	-0.191414	-0.110922	-95.140040	 1.861809	-30.002620	-0.359747	 10.581380	 0.744568	 11.977790	 9.316260	-2.095853	-8.359123	 3.149781	 0.104277
-0.005309	 1.272377	 0.163596	 1.076368	 2.447604	 177.892900	-175.317400	 5.868169	-22.959040	 3.233877	-15.946770	 2.532146	-5.849387	 67.513180	 7.274783	 1.331492	 28.938720	-2.729976	 178.364200	 8.050543	 25.157450	-1.485248	-4.887497	-6.461751	-2.121444	 56.007180	-0.186317	-1.305623	 28.582160	 2.536624	-1.173509	 4.946023	 13.719150	-1.251987	-6.412160	 2.665374	-1.114706	 10.342140	-9.752522	-113.449400	 4.982241	 92.968530	 16.184800	 49.462890	 30.541370	 5.068913	-0.246222	 0.145372	 2.203618	 4.610918	 3.102792	-6.580301	 5.266122	 0.000000	 0.000000	 0.000000	 0.000000	 0.000000	 0.000000	 0.000000	 4.064749	-1.183694	-0.322294	 4.107064	 2.426455	-1.539877	 114.164500	-4.142097	-88.689410	-51.298960	-23.975140	 25.757080	-4.839350	-0.178232	-0.167073	-110.472000	 1.606641	-26.938770	-0.359735	 10.581000	 0.744568	 11.977790	 9.315884	-2.095777	-8.359116	 3.149583	 0.104296
-0.004666	 1.272342	 0.162033	 1.120994	 2.478617	 177.957500	-175.244400	 5.775890	-22.903220	 3.248992	-16.017430	 2.674138	-5.626973	 67.612210	 6.961565	 1.331492	 28.938720	-2.729976	 178.428800	 7.910426	 25.277660	-1.485570	-4.888579	-6.404140	-1.987085	 56.186260	-0.286212	-1.305952	 28.585920	 2.513548	-1.418253	 5.000679	 14.384030	-1.152290	-7.431175	 1.758882	-1.316312	 11.065070	-7.735347	-113.449900	 4.923729	 92.948490	 15.246290	 49.292460	 31.280810	 5.151425	-0.246184	 0.208153	 1.455973	 4.789256	-1.919989	-6.580301	 5.266122	 0.000000	 0.000000	 0.000000	 0.000000	 0.000000	 0.000000	 0.000000	 4.072626	-1.311005	-0.304752	 4.136628	 2.674509	-1.104062	 114.156700	-4.087144	-88.729090	-51.434610	-22.698370	 21.780450	-4.903951	-0.177370	-0.229785	-120.227900	-0.193133	-28.324610	-0.359715	 10.580400	 0.744566	 11.977780	 9.315290	-2.095654	-8.359104	 3.149274	 0.104322
